<mxfile host="app.diagrams.net" agent="Mozilla/5.0 (Windows NT 10.0; Win64; x64) AppleWebKit/537.36 (KHTML, like Gecko) Chrome/140.0.0.0 Safari/537.36" version="28.2.3">
  <diagram name="Page-1" id="--trkbDa8BW17IYh_zbj">
    <mxGraphModel dx="786" dy="463" grid="1" gridSize="15" guides="1" tooltips="1" connect="1" arrows="1" fold="1" page="1" pageScale="1" pageWidth="850" pageHeight="1100" math="0" shadow="0">
      <root>
        <mxCell id="0" />
        <mxCell id="1" parent="0" />
        <mxCell id="QN8NHZsEBtZhOlrf_0FM-1" value="Start" style="ellipse;whiteSpace=wrap;html=1;aspect=fixed;fillColor=#e3c800;strokeColor=#B09500;fontColor=#000000;fontSize=20;" parent="1" vertex="1">
          <mxGeometry x="8" y="152" width="80" height="80" as="geometry" />
        </mxCell>
        <mxCell id="QN8NHZsEBtZhOlrf_0FM-2" value="Enter User Info" style="rounded=1;whiteSpace=wrap;html=1;fillColor=#e3c800;fontColor=#000000;strokeColor=#B09500;fontSize=15;" parent="1" vertex="1">
          <mxGeometry x="135" y="162" width="120" height="60" as="geometry" />
        </mxCell>
        <mxCell id="QN8NHZsEBtZhOlrf_0FM-4" value="Login succeeded?" style="rhombus;whiteSpace=wrap;html=1;fillColor=#e3c800;fontColor=#000000;strokeColor=#B09500;fontSize=12;" parent="1" vertex="1">
          <mxGeometry x="425" y="152" width="80" height="80" as="geometry" />
        </mxCell>
        <mxCell id="QN8NHZsEBtZhOlrf_0FM-6" value="Error Login/Forgot Password Process" style="rounded=1;whiteSpace=wrap;html=1;fillColor=#e3c800;fontColor=#000000;strokeColor=#B09500;fontSize=14;" parent="1" vertex="1">
          <mxGeometry x="405" y="285" width="120" height="60" as="geometry" />
        </mxCell>
        <mxCell id="QN8NHZsEBtZhOlrf_0FM-8" value="Login Complete/Redirect to Main" style="rounded=1;whiteSpace=wrap;html=1;fillColor=#e3c800;fontColor=#000000;strokeColor=#B09500;fontSize=15;" parent="1" vertex="1">
          <mxGeometry x="555" y="162" width="120" height="60" as="geometry" />
        </mxCell>
        <mxCell id="QN8NHZsEBtZhOlrf_0FM-10" value="End" style="ellipse;whiteSpace=wrap;html=1;aspect=fixed;fillColor=#e3c800;fontColor=#000000;strokeColor=#B09500;fontSize=15;" parent="1" vertex="1">
          <mxGeometry x="575" y="300" width="80" height="80" as="geometry" />
        </mxCell>
        <mxCell id="QN8NHZsEBtZhOlrf_0FM-19" value="" style="endArrow=classic;html=1;rounded=0;" parent="1" edge="1">
          <mxGeometry width="50" height="50" relative="1" as="geometry">
            <mxPoint x="90" y="195" as="sourcePoint" />
            <mxPoint x="135" y="195" as="targetPoint" />
            <Array as="points" />
          </mxGeometry>
        </mxCell>
        <mxCell id="QN8NHZsEBtZhOlrf_0FM-20" value="" style="endArrow=classic;html=1;rounded=0;exitX=1;exitY=0.5;exitDx=0;exitDy=0;entryX=0;entryY=0.5;entryDx=0;entryDy=0;" parent="1" source="pK7LYFZLIPX1B3djwLJK-2" target="QN8NHZsEBtZhOlrf_0FM-4" edge="1">
          <mxGeometry width="50" height="50" relative="1" as="geometry">
            <mxPoint x="375" y="275" as="sourcePoint" />
            <mxPoint x="425" y="225" as="targetPoint" />
          </mxGeometry>
        </mxCell>
        <mxCell id="QN8NHZsEBtZhOlrf_0FM-25" value="" style="endArrow=classic;html=1;rounded=0;exitX=0;exitY=0.5;exitDx=0;exitDy=0;entryX=0.5;entryY=1;entryDx=0;entryDy=0;" parent="1" source="pK7LYFZLIPX1B3djwLJK-7" target="QN8NHZsEBtZhOlrf_0FM-1" edge="1">
          <mxGeometry width="50" height="50" relative="1" as="geometry">
            <mxPoint x="315" y="375" as="sourcePoint" />
            <mxPoint x="45" y="345" as="targetPoint" />
          </mxGeometry>
        </mxCell>
        <mxCell id="QN8NHZsEBtZhOlrf_0FM-27" value="" style="endArrow=classic;html=1;rounded=0;entryX=0;entryY=0.5;entryDx=0;entryDy=0;exitX=1;exitY=0.5;exitDx=0;exitDy=0;" parent="1" source="QN8NHZsEBtZhOlrf_0FM-4" target="QN8NHZsEBtZhOlrf_0FM-8" edge="1">
          <mxGeometry width="50" height="50" relative="1" as="geometry">
            <mxPoint x="375" y="275" as="sourcePoint" />
            <mxPoint x="425" y="225" as="targetPoint" />
          </mxGeometry>
        </mxCell>
        <mxCell id="QN8NHZsEBtZhOlrf_0FM-29" value="" style="endArrow=classic;html=1;rounded=0;exitX=0.5;exitY=1;exitDx=0;exitDy=0;" parent="1" source="QN8NHZsEBtZhOlrf_0FM-8" edge="1">
          <mxGeometry width="50" height="50" relative="1" as="geometry">
            <mxPoint x="585" y="206" as="sourcePoint" />
            <mxPoint x="615" y="300" as="targetPoint" />
            <Array as="points">
              <mxPoint x="615" y="270" />
            </Array>
          </mxGeometry>
        </mxCell>
        <mxCell id="pK7LYFZLIPX1B3djwLJK-5" value="" style="endArrow=classic;html=1;rounded=0;exitX=1;exitY=0.5;exitDx=0;exitDy=0;entryX=0;entryY=0.5;entryDx=0;entryDy=0;" edge="1" parent="1" source="QN8NHZsEBtZhOlrf_0FM-2" target="pK7LYFZLIPX1B3djwLJK-2">
          <mxGeometry width="50" height="50" relative="1" as="geometry">
            <mxPoint x="255" y="192" as="sourcePoint" />
            <mxPoint x="398" y="192" as="targetPoint" />
          </mxGeometry>
        </mxCell>
        <mxCell id="pK7LYFZLIPX1B3djwLJK-2" value="Create New User?" style="rhombus;whiteSpace=wrap;html=1;fillColor=#e3c800;fontColor=#000000;strokeColor=#B09500;fontSize=12;" vertex="1" parent="1">
          <mxGeometry x="285" y="152" width="80" height="80" as="geometry" />
        </mxCell>
        <mxCell id="pK7LYFZLIPX1B3djwLJK-6" value="" style="endArrow=classic;html=1;rounded=0;exitX=0.5;exitY=1;exitDx=0;exitDy=0;" edge="1" parent="1" source="pK7LYFZLIPX1B3djwLJK-2">
          <mxGeometry width="50" height="50" relative="1" as="geometry">
            <mxPoint x="325" y="232" as="sourcePoint" />
            <mxPoint x="325" y="285" as="targetPoint" />
          </mxGeometry>
        </mxCell>
        <mxCell id="pK7LYFZLIPX1B3djwLJK-7" value="Create User Process" style="rounded=1;whiteSpace=wrap;html=1;fillColor=#e3c800;fontColor=#000000;strokeColor=#B09500;fontSize=15;" vertex="1" parent="1">
          <mxGeometry x="265" y="285" width="120" height="60" as="geometry" />
        </mxCell>
        <mxCell id="pK7LYFZLIPX1B3djwLJK-8" value="Yes" style="text;html=1;align=center;verticalAlign=middle;resizable=0;points=[];autosize=1;strokeColor=none;fillColor=none;" vertex="1" parent="1">
          <mxGeometry x="320" y="240" width="45" height="30" as="geometry" />
        </mxCell>
        <mxCell id="pK7LYFZLIPX1B3djwLJK-9" value="No" style="text;html=1;align=center;verticalAlign=middle;resizable=0;points=[];autosize=1;strokeColor=none;fillColor=none;" vertex="1" parent="1">
          <mxGeometry x="365" y="162" width="45" height="30" as="geometry" />
        </mxCell>
        <mxCell id="pK7LYFZLIPX1B3djwLJK-11" value="" style="endArrow=classic;html=1;rounded=0;exitX=0.5;exitY=1;exitDx=0;exitDy=0;" edge="1" parent="1" source="QN8NHZsEBtZhOlrf_0FM-4">
          <mxGeometry width="50" height="50" relative="1" as="geometry">
            <mxPoint x="495" y="405" as="sourcePoint" />
            <mxPoint x="465" y="285" as="targetPoint" />
          </mxGeometry>
        </mxCell>
        <mxCell id="pK7LYFZLIPX1B3djwLJK-12" value="Yes" style="text;html=1;align=center;verticalAlign=middle;resizable=0;points=[];autosize=1;strokeColor=none;fillColor=none;" vertex="1" parent="1">
          <mxGeometry x="505" y="162" width="45" height="30" as="geometry" />
        </mxCell>
        <mxCell id="pK7LYFZLIPX1B3djwLJK-13" value="No" style="text;html=1;align=center;verticalAlign=middle;resizable=0;points=[];autosize=1;strokeColor=none;fillColor=none;" vertex="1" parent="1">
          <mxGeometry x="460" y="240" width="45" height="30" as="geometry" />
        </mxCell>
        <mxCell id="pK7LYFZLIPX1B3djwLJK-17" value="" style="endArrow=none;html=1;rounded=0;entryX=0.5;entryY=1;entryDx=0;entryDy=0;" edge="1" parent="1" target="QN8NHZsEBtZhOlrf_0FM-6">
          <mxGeometry width="50" height="50" relative="1" as="geometry">
            <mxPoint x="30" y="435" as="sourcePoint" />
            <mxPoint x="425" y="315" as="targetPoint" />
            <Array as="points">
              <mxPoint x="465" y="435" />
            </Array>
          </mxGeometry>
        </mxCell>
        <mxCell id="pK7LYFZLIPX1B3djwLJK-18" value="" style="endArrow=classic;html=1;rounded=0;entryX=0.333;entryY=0.983;entryDx=0;entryDy=0;entryPerimeter=0;" edge="1" parent="1" target="QN8NHZsEBtZhOlrf_0FM-1">
          <mxGeometry width="50" height="50" relative="1" as="geometry">
            <mxPoint x="30" y="435" as="sourcePoint" />
            <mxPoint x="30" y="240" as="targetPoint" />
            <Array as="points" />
          </mxGeometry>
        </mxCell>
      </root>
    </mxGraphModel>
  </diagram>
</mxfile>
